<mxfile host="app.diagrams.net" modified="2024-04-19T03:18:59.348Z" agent="Mozilla/5.0 (Macintosh; Intel Mac OS X 10_15_7) AppleWebKit/537.36 (KHTML, like Gecko) Chrome/123.0.0.0 Safari/537.36" etag="qhF05dwcF7XKUoPRMsPn" version="24.2.3" type="github">
  <diagram name="第 1 页" id="3FuqSsKHA-6LWx0kxVeV">
    <mxGraphModel dx="918" dy="588" grid="1" gridSize="10" guides="1" tooltips="1" connect="1" arrows="1" fold="1" page="1" pageScale="1" pageWidth="827" pageHeight="1169" math="0" shadow="0">
      <root>
        <mxCell id="0" />
        <mxCell id="1" parent="0" />
        <mxCell id="a16-33ozwnPPd66yTyi8-30" value="Pool" style="swimlane;childLayout=stackLayout;resizeParent=1;resizeParentMax=0;startSize=20;html=1;" parent="1" vertex="1">
          <mxGeometry x="170" y="40" width="527.5" height="1380" as="geometry" />
        </mxCell>
        <mxCell id="a16-33ozwnPPd66yTyi8-31" value="用户" style="swimlane;startSize=20;html=1;" parent="a16-33ozwnPPd66yTyi8-30" vertex="1">
          <mxGeometry y="20" width="120" height="1360" as="geometry" />
        </mxCell>
        <mxCell id="a16-33ozwnPPd66yTyi8-36" value="" style="edgeStyle=orthogonalEdgeStyle;rounded=0;orthogonalLoop=1;jettySize=auto;html=1;" parent="a16-33ozwnPPd66yTyi8-31" source="a16-33ozwnPPd66yTyi8-34" target="a16-33ozwnPPd66yTyi8-35" edge="1">
          <mxGeometry relative="1" as="geometry" />
        </mxCell>
        <mxCell id="a16-33ozwnPPd66yTyi8-34" value="" style="verticalLabelPosition=bottom;verticalAlign=top;html=1;shape=mxgraph.flowchart.on-page_reference;" parent="a16-33ozwnPPd66yTyi8-31" vertex="1">
          <mxGeometry x="40" y="30" width="40" height="40" as="geometry" />
        </mxCell>
        <mxCell id="a16-33ozwnPPd66yTyi8-38" value="" style="edgeStyle=orthogonalEdgeStyle;rounded=0;orthogonalLoop=1;jettySize=auto;html=1;" parent="a16-33ozwnPPd66yTyi8-31" source="a16-33ozwnPPd66yTyi8-35" target="a16-33ozwnPPd66yTyi8-37" edge="1">
          <mxGeometry relative="1" as="geometry" />
        </mxCell>
        <mxCell id="a16-33ozwnPPd66yTyi8-35" value="选择商品" style="whiteSpace=wrap;html=1;verticalAlign=top;" parent="a16-33ozwnPPd66yTyi8-31" vertex="1">
          <mxGeometry x="15" y="110" width="90" height="30" as="geometry" />
        </mxCell>
        <mxCell id="a16-33ozwnPPd66yTyi8-40" value="" style="edgeStyle=orthogonalEdgeStyle;rounded=0;orthogonalLoop=1;jettySize=auto;html=1;" parent="a16-33ozwnPPd66yTyi8-31" source="a16-33ozwnPPd66yTyi8-37" target="a16-33ozwnPPd66yTyi8-39" edge="1">
          <mxGeometry relative="1" as="geometry" />
        </mxCell>
        <mxCell id="a16-33ozwnPPd66yTyi8-37" value="输入礼金信息" style="whiteSpace=wrap;html=1;verticalAlign=top;" parent="a16-33ozwnPPd66yTyi8-31" vertex="1">
          <mxGeometry x="15" y="170" width="90" height="30" as="geometry" />
        </mxCell>
        <mxCell id="a16-33ozwnPPd66yTyi8-39" value="点击创建" style="whiteSpace=wrap;html=1;verticalAlign=top;" parent="a16-33ozwnPPd66yTyi8-31" vertex="1">
          <mxGeometry x="15" y="220" width="90" height="30" as="geometry" />
        </mxCell>
        <mxCell id="a16-33ozwnPPd66yTyi8-50" value="提示余额不足" style="whiteSpace=wrap;html=1;verticalAlign=top;" parent="a16-33ozwnPPd66yTyi8-31" vertex="1">
          <mxGeometry x="15" y="270" width="90" height="32.5" as="geometry" />
        </mxCell>
        <mxCell id="a16-33ozwnPPd66yTyi8-104" value="提示创建失败信息" style="whiteSpace=wrap;html=1;verticalAlign=top;" parent="a16-33ozwnPPd66yTyi8-31" vertex="1">
          <mxGeometry x="15" y="560" width="90" height="32.5" as="geometry" />
        </mxCell>
        <mxCell id="a16-33ozwnPPd66yTyi8-122" value="创建成功" style="whiteSpace=wrap;html=1;verticalAlign=top;" parent="a16-33ozwnPPd66yTyi8-31" vertex="1">
          <mxGeometry x="8.280000000000001" y="1280" width="103.44" height="40" as="geometry" />
        </mxCell>
        <mxCell id="a16-33ozwnPPd66yTyi8-32" value="礼金服务" style="swimlane;startSize=20;html=1;" parent="a16-33ozwnPPd66yTyi8-30" vertex="1">
          <mxGeometry x="120" y="20" width="266.25" height="1360" as="geometry" />
        </mxCell>
        <mxCell id="a16-33ozwnPPd66yTyi8-41" value="校验参数" style="whiteSpace=wrap;html=1;verticalAlign=top;" parent="a16-33ozwnPPd66yTyi8-32" vertex="1">
          <mxGeometry x="96.56" y="220" width="90" height="30" as="geometry" />
        </mxCell>
        <mxCell id="a16-33ozwnPPd66yTyi8-54" value="是" style="edgeStyle=orthogonalEdgeStyle;rounded=0;orthogonalLoop=1;jettySize=auto;html=1;" parent="a16-33ozwnPPd66yTyi8-32" source="a16-33ozwnPPd66yTyi8-47" target="a16-33ozwnPPd66yTyi8-53" edge="1">
          <mxGeometry relative="1" as="geometry" />
        </mxCell>
        <mxCell id="a16-33ozwnPPd66yTyi8-47" value="余额是否够" style="rhombus;whiteSpace=wrap;html=1;verticalAlign=top;" parent="a16-33ozwnPPd66yTyi8-32" vertex="1">
          <mxGeometry x="99.69" y="261.25" width="67.5" height="50" as="geometry" />
        </mxCell>
        <mxCell id="Uigu6_3h4VXQLLATzVc4-1" style="edgeStyle=orthogonalEdgeStyle;rounded=0;orthogonalLoop=1;jettySize=auto;html=1;exitX=0.5;exitY=1;exitDx=0;exitDy=0;" edge="1" parent="a16-33ozwnPPd66yTyi8-32" source="a16-33ozwnPPd66yTyi8-53" target="a16-33ozwnPPd66yTyi8-106">
          <mxGeometry relative="1" as="geometry" />
        </mxCell>
        <mxCell id="a16-33ozwnPPd66yTyi8-53" value="创建礼金本地记录表" style="whiteSpace=wrap;html=1;verticalAlign=top;" parent="a16-33ozwnPPd66yTyi8-32" vertex="1">
          <mxGeometry x="87.19" y="350" width="92.5" height="35" as="geometry" />
        </mxCell>
        <mxCell id="a16-33ozwnPPd66yTyi8-109" value="" style="edgeStyle=orthogonalEdgeStyle;rounded=0;orthogonalLoop=1;jettySize=auto;html=1;" parent="a16-33ozwnPPd66yTyi8-32" source="a16-33ozwnPPd66yTyi8-106" target="a16-33ozwnPPd66yTyi8-108" edge="1">
          <mxGeometry relative="1" as="geometry" />
        </mxCell>
        <mxCell id="a16-33ozwnPPd66yTyi8-106" value="创建淘礼金" style="whiteSpace=wrap;html=1;verticalAlign=top;" parent="a16-33ozwnPPd66yTyi8-32" vertex="1">
          <mxGeometry x="86.86999999999999" y="450" width="92.5" height="35" as="geometry" />
        </mxCell>
        <mxCell id="Uigu6_3h4VXQLLATzVc4-3" value="是" style="edgeStyle=orthogonalEdgeStyle;rounded=0;orthogonalLoop=1;jettySize=auto;html=1;" edge="1" parent="a16-33ozwnPPd66yTyi8-32" source="a16-33ozwnPPd66yTyi8-108" target="Uigu6_3h4VXQLLATzVc4-2">
          <mxGeometry relative="1" as="geometry" />
        </mxCell>
        <mxCell id="Uigu6_3h4VXQLLATzVc4-16" style="edgeStyle=orthogonalEdgeStyle;rounded=0;orthogonalLoop=1;jettySize=auto;html=1;exitX=0;exitY=0.5;exitDx=0;exitDy=0;entryX=0;entryY=0.5;entryDx=0;entryDy=0;" edge="1" parent="a16-33ozwnPPd66yTyi8-32" source="a16-33ozwnPPd66yTyi8-108" target="a16-33ozwnPPd66yTyi8-119">
          <mxGeometry relative="1" as="geometry" />
        </mxCell>
        <mxCell id="Uigu6_3h4VXQLLATzVc4-17" value="是" style="edgeLabel;html=1;align=center;verticalAlign=middle;resizable=0;points=[];" vertex="1" connectable="0" parent="Uigu6_3h4VXQLLATzVc4-16">
          <mxGeometry x="-0.9339" y="-1" relative="1" as="geometry">
            <mxPoint as="offset" />
          </mxGeometry>
        </mxCell>
        <mxCell id="a16-33ozwnPPd66yTyi8-108" value="是否成功" style="rhombus;whiteSpace=wrap;html=1;verticalAlign=top;" parent="a16-33ozwnPPd66yTyi8-32" vertex="1">
          <mxGeometry x="99.68" y="560" width="66.88" height="57.5" as="geometry" />
        </mxCell>
        <mxCell id="a16-33ozwnPPd66yTyi8-124" value="" style="edgeStyle=orthogonalEdgeStyle;rounded=0;orthogonalLoop=1;jettySize=auto;html=1;" parent="a16-33ozwnPPd66yTyi8-32" source="a16-33ozwnPPd66yTyi8-119" target="a16-33ozwnPPd66yTyi8-123" edge="1">
          <mxGeometry relative="1" as="geometry" />
        </mxCell>
        <mxCell id="a16-33ozwnPPd66yTyi8-119" value="更新本地记录状态" style="whiteSpace=wrap;html=1;verticalAlign=top;" parent="a16-33ozwnPPd66yTyi8-32" vertex="1">
          <mxGeometry x="77.96000000000001" y="1120" width="106.88" height="40" as="geometry" />
        </mxCell>
        <mxCell id="a16-33ozwnPPd66yTyi8-123" value="返回创建结果" style="whiteSpace=wrap;html=1;verticalAlign=top;" parent="a16-33ozwnPPd66yTyi8-32" vertex="1">
          <mxGeometry x="77.96000000000001" y="1230" width="106.88" height="40" as="geometry" />
        </mxCell>
        <mxCell id="Uigu6_3h4VXQLLATzVc4-5" value="" style="edgeStyle=orthogonalEdgeStyle;rounded=0;orthogonalLoop=1;jettySize=auto;html=1;" edge="1" parent="a16-33ozwnPPd66yTyi8-32" source="Uigu6_3h4VXQLLATzVc4-2" target="Uigu6_3h4VXQLLATzVc4-4">
          <mxGeometry relative="1" as="geometry" />
        </mxCell>
        <mxCell id="Uigu6_3h4VXQLLATzVc4-2" value="扣除用户余额" style="whiteSpace=wrap;html=1;verticalAlign=top;" vertex="1" parent="a16-33ozwnPPd66yTyi8-32">
          <mxGeometry x="81.4" y="660" width="103.44" height="30" as="geometry" />
        </mxCell>
        <mxCell id="Uigu6_3h4VXQLLATzVc4-7" value="" style="edgeStyle=orthogonalEdgeStyle;rounded=0;orthogonalLoop=1;jettySize=auto;html=1;" edge="1" parent="a16-33ozwnPPd66yTyi8-32" source="Uigu6_3h4VXQLLATzVc4-4" target="Uigu6_3h4VXQLLATzVc4-6">
          <mxGeometry relative="1" as="geometry" />
        </mxCell>
        <mxCell id="Uigu6_3h4VXQLLATzVc4-8" value="否" style="edgeLabel;html=1;align=center;verticalAlign=middle;resizable=0;points=[];" vertex="1" connectable="0" parent="Uigu6_3h4VXQLLATzVc4-7">
          <mxGeometry x="-0.3064" y="1" relative="1" as="geometry">
            <mxPoint as="offset" />
          </mxGeometry>
        </mxCell>
        <mxCell id="Uigu6_3h4VXQLLATzVc4-14" style="edgeStyle=orthogonalEdgeStyle;rounded=0;orthogonalLoop=1;jettySize=auto;html=1;exitX=0;exitY=0.5;exitDx=0;exitDy=0;entryX=0;entryY=0.5;entryDx=0;entryDy=0;" edge="1" parent="a16-33ozwnPPd66yTyi8-32" source="Uigu6_3h4VXQLLATzVc4-4" target="a16-33ozwnPPd66yTyi8-119">
          <mxGeometry relative="1" as="geometry" />
        </mxCell>
        <mxCell id="Uigu6_3h4VXQLLATzVc4-15" value="是" style="edgeLabel;html=1;align=center;verticalAlign=middle;resizable=0;points=[];" vertex="1" connectable="0" parent="Uigu6_3h4VXQLLATzVc4-14">
          <mxGeometry x="0.0293" y="2" relative="1" as="geometry">
            <mxPoint as="offset" />
          </mxGeometry>
        </mxCell>
        <mxCell id="Uigu6_3h4VXQLLATzVc4-4" value="是否成功" style="rhombus;whiteSpace=wrap;html=1;verticalAlign=top;" vertex="1" parent="a16-33ozwnPPd66yTyi8-32">
          <mxGeometry x="94.69" y="745" width="76.88" height="65" as="geometry" />
        </mxCell>
        <mxCell id="Uigu6_3h4VXQLLATzVc4-10" value="" style="edgeStyle=orthogonalEdgeStyle;rounded=0;orthogonalLoop=1;jettySize=auto;html=1;" edge="1" parent="a16-33ozwnPPd66yTyi8-32" source="Uigu6_3h4VXQLLATzVc4-6" target="Uigu6_3h4VXQLLATzVc4-9">
          <mxGeometry relative="1" as="geometry" />
        </mxCell>
        <mxCell id="Uigu6_3h4VXQLLATzVc4-6" value="查询一次是否支付成功" style="whiteSpace=wrap;html=1;verticalAlign=top;" vertex="1" parent="a16-33ozwnPPd66yTyi8-32">
          <mxGeometry x="84.69" y="870" width="96.87" height="27.5" as="geometry" />
        </mxCell>
        <mxCell id="Uigu6_3h4VXQLLATzVc4-12" value="否" style="edgeStyle=orthogonalEdgeStyle;rounded=0;orthogonalLoop=1;jettySize=auto;html=1;" edge="1" parent="a16-33ozwnPPd66yTyi8-32" source="Uigu6_3h4VXQLLATzVc4-9" target="Uigu6_3h4VXQLLATzVc4-11">
          <mxGeometry relative="1" as="geometry" />
        </mxCell>
        <mxCell id="Uigu6_3h4VXQLLATzVc4-19" style="edgeStyle=orthogonalEdgeStyle;rounded=0;orthogonalLoop=1;jettySize=auto;html=1;exitX=1;exitY=0.5;exitDx=0;exitDy=0;entryX=1;entryY=0.5;entryDx=0;entryDy=0;" edge="1" parent="a16-33ozwnPPd66yTyi8-32" source="Uigu6_3h4VXQLLATzVc4-9" target="a16-33ozwnPPd66yTyi8-119">
          <mxGeometry relative="1" as="geometry">
            <Array as="points">
              <mxPoint x="220" y="965" />
              <mxPoint x="220" y="1140" />
            </Array>
          </mxGeometry>
        </mxCell>
        <mxCell id="Uigu6_3h4VXQLLATzVc4-20" value="是" style="edgeLabel;html=1;align=center;verticalAlign=middle;resizable=0;points=[];" vertex="1" connectable="0" parent="Uigu6_3h4VXQLLATzVc4-19">
          <mxGeometry x="-0.8399" y="-4" relative="1" as="geometry">
            <mxPoint as="offset" />
          </mxGeometry>
        </mxCell>
        <mxCell id="Uigu6_3h4VXQLLATzVc4-9" value="是否支付" style="rhombus;whiteSpace=wrap;html=1;verticalAlign=top;" vertex="1" parent="a16-33ozwnPPd66yTyi8-32">
          <mxGeometry x="94.68" y="940" width="76.88" height="50" as="geometry" />
        </mxCell>
        <mxCell id="Uigu6_3h4VXQLLATzVc4-13" style="edgeStyle=orthogonalEdgeStyle;rounded=0;orthogonalLoop=1;jettySize=auto;html=1;exitX=0.5;exitY=1;exitDx=0;exitDy=0;entryX=0.5;entryY=0;entryDx=0;entryDy=0;" edge="1" parent="a16-33ozwnPPd66yTyi8-32" source="Uigu6_3h4VXQLLATzVc4-11" target="a16-33ozwnPPd66yTyi8-119">
          <mxGeometry relative="1" as="geometry" />
        </mxCell>
        <mxCell id="Uigu6_3h4VXQLLATzVc4-11" value="停止订单" style="whiteSpace=wrap;html=1;verticalAlign=top;" vertex="1" parent="a16-33ozwnPPd66yTyi8-32">
          <mxGeometry x="79.36999999999999" y="1020" width="107.51" height="40" as="geometry" />
        </mxCell>
        <mxCell id="a16-33ozwnPPd66yTyi8-33" value="支付服务" style="swimlane;startSize=20;html=1;" parent="a16-33ozwnPPd66yTyi8-30" vertex="1">
          <mxGeometry x="386.25" y="20" width="141.25" height="1360" as="geometry" />
        </mxCell>
        <mxCell id="a16-33ozwnPPd66yTyi8-45" value="查询余额" style="whiteSpace=wrap;html=1;verticalAlign=top;" parent="a16-33ozwnPPd66yTyi8-33" vertex="1">
          <mxGeometry x="33.75" y="220" width="90" height="30" as="geometry" />
        </mxCell>
        <mxCell id="a16-33ozwnPPd66yTyi8-42" value="" style="edgeStyle=orthogonalEdgeStyle;rounded=0;orthogonalLoop=1;jettySize=auto;html=1;" parent="a16-33ozwnPPd66yTyi8-30" source="a16-33ozwnPPd66yTyi8-39" target="a16-33ozwnPPd66yTyi8-41" edge="1">
          <mxGeometry relative="1" as="geometry" />
        </mxCell>
        <mxCell id="a16-33ozwnPPd66yTyi8-46" value="" style="edgeStyle=orthogonalEdgeStyle;rounded=0;orthogonalLoop=1;jettySize=auto;html=1;" parent="a16-33ozwnPPd66yTyi8-30" source="a16-33ozwnPPd66yTyi8-41" target="a16-33ozwnPPd66yTyi8-45" edge="1">
          <mxGeometry relative="1" as="geometry" />
        </mxCell>
        <mxCell id="a16-33ozwnPPd66yTyi8-49" style="edgeStyle=orthogonalEdgeStyle;rounded=0;orthogonalLoop=1;jettySize=auto;html=1;exitX=0.5;exitY=1;exitDx=0;exitDy=0;entryX=1;entryY=0.5;entryDx=0;entryDy=0;" parent="a16-33ozwnPPd66yTyi8-30" source="a16-33ozwnPPd66yTyi8-45" target="a16-33ozwnPPd66yTyi8-47" edge="1">
          <mxGeometry relative="1" as="geometry" />
        </mxCell>
        <mxCell id="a16-33ozwnPPd66yTyi8-51" value="" style="edgeStyle=orthogonalEdgeStyle;rounded=0;orthogonalLoop=1;jettySize=auto;html=1;" parent="a16-33ozwnPPd66yTyi8-30" source="a16-33ozwnPPd66yTyi8-47" target="a16-33ozwnPPd66yTyi8-50" edge="1">
          <mxGeometry relative="1" as="geometry" />
        </mxCell>
        <mxCell id="a16-33ozwnPPd66yTyi8-52" value="否" style="edgeLabel;html=1;align=center;verticalAlign=middle;resizable=0;points=[];" parent="a16-33ozwnPPd66yTyi8-51" vertex="1" connectable="0">
          <mxGeometry x="0.0136" relative="1" as="geometry">
            <mxPoint as="offset" />
          </mxGeometry>
        </mxCell>
        <mxCell id="a16-33ozwnPPd66yTyi8-125" style="edgeStyle=orthogonalEdgeStyle;rounded=0;orthogonalLoop=1;jettySize=auto;html=1;exitX=0.5;exitY=1;exitDx=0;exitDy=0;entryX=1;entryY=0.5;entryDx=0;entryDy=0;" parent="a16-33ozwnPPd66yTyi8-30" source="a16-33ozwnPPd66yTyi8-123" target="a16-33ozwnPPd66yTyi8-122" edge="1">
          <mxGeometry relative="1" as="geometry" />
        </mxCell>
      </root>
    </mxGraphModel>
  </diagram>
</mxfile>
